<mxfile host="app.diagrams.net" modified="2022-02-08T01:24:57.787Z" agent="5.0 (Windows NT 10.0; Win64; x64) AppleWebKit/537.36 (KHTML, like Gecko) Chrome/98.0.4758.82 Safari/537.36" etag="WzuQdtLVO6jcId8_o-H_" version="16.5.3" type="github">
  <diagram id="Ggz3C5Qx8r-jLD3LioTw" name="Page-1">
    <mxGraphModel dx="902" dy="484" grid="1" gridSize="10" guides="1" tooltips="1" connect="1" arrows="1" fold="1" page="1" pageScale="1" pageWidth="850" pageHeight="1100" math="0" shadow="0">
      <root>
        <mxCell id="0" />
        <mxCell id="1" parent="0" />
        <mxCell id="RMkBgLgHhMfyUN7RM4hB-1" value="" style="swimlane;startSize=0;" vertex="1" parent="1">
          <mxGeometry x="120" y="370" width="200" height="200" as="geometry" />
        </mxCell>
        <mxCell id="RMkBgLgHhMfyUN7RM4hB-8" value="Capstone VM (Victim)" style="whiteSpace=wrap;html=1;" vertex="1" parent="RMkBgLgHhMfyUN7RM4hB-1">
          <mxGeometry x="40" y="70" width="120" height="60" as="geometry" />
        </mxCell>
        <mxCell id="RMkBgLgHhMfyUN7RM4hB-2" value="" style="swimlane;startSize=0;" vertex="1" parent="1">
          <mxGeometry x="540" y="370" width="200" height="200" as="geometry" />
        </mxCell>
        <mxCell id="RMkBgLgHhMfyUN7RM4hB-10" value="Kali VM (Attacker)" style="whiteSpace=wrap;html=1;" vertex="1" parent="RMkBgLgHhMfyUN7RM4hB-2">
          <mxGeometry x="40" y="70" width="120" height="60" as="geometry" />
        </mxCell>
        <mxCell id="RMkBgLgHhMfyUN7RM4hB-3" value="" style="swimlane;startSize=0;" vertex="1" parent="1">
          <mxGeometry x="300" y="840" width="200" height="200" as="geometry" />
        </mxCell>
        <mxCell id="RMkBgLgHhMfyUN7RM4hB-5" value="User Local Machine" style="rounded=1;whiteSpace=wrap;html=1;" vertex="1" parent="RMkBgLgHhMfyUN7RM4hB-3">
          <mxGeometry x="40" y="70" width="120" height="60" as="geometry" />
        </mxCell>
        <mxCell id="RMkBgLgHhMfyUN7RM4hB-4" value="Internet" style="ellipse;shape=cloud;whiteSpace=wrap;html=1;" vertex="1" parent="1">
          <mxGeometry x="340" y="650" width="120" height="80" as="geometry" />
        </mxCell>
        <mxCell id="RMkBgLgHhMfyUN7RM4hB-6" value="" style="endArrow=classic;html=1;rounded=0;entryX=0.637;entryY=0.978;entryDx=0;entryDy=0;entryPerimeter=0;exitX=0.554;exitY=-0.011;exitDx=0;exitDy=0;exitPerimeter=0;" edge="1" parent="1" source="RMkBgLgHhMfyUN7RM4hB-3" target="RMkBgLgHhMfyUN7RM4hB-4">
          <mxGeometry width="50" height="50" relative="1" as="geometry">
            <mxPoint x="410" y="830" as="sourcePoint" />
            <mxPoint x="410" y="740" as="targetPoint" />
            <Array as="points">
              <mxPoint x="410" y="720" />
            </Array>
          </mxGeometry>
        </mxCell>
        <mxCell id="RMkBgLgHhMfyUN7RM4hB-9" value="" style="endArrow=classic;html=1;rounded=0;" edge="1" parent="1" target="RMkBgLgHhMfyUN7RM4hB-2">
          <mxGeometry width="50" height="50" relative="1" as="geometry">
            <mxPoint x="430" y="660" as="sourcePoint" />
            <mxPoint x="770" y="570" as="targetPoint" />
            <Array as="points">
              <mxPoint x="430" y="660" />
              <mxPoint x="800" y="580" />
              <mxPoint x="810" y="580" />
            </Array>
          </mxGeometry>
        </mxCell>
        <mxCell id="RMkBgLgHhMfyUN7RM4hB-12" value="" style="endArrow=classic;html=1;rounded=0;entryX=1.006;entryY=0.603;entryDx=0;entryDy=0;entryPerimeter=0;" edge="1" parent="1" target="RMkBgLgHhMfyUN7RM4hB-1">
          <mxGeometry width="50" height="50" relative="1" as="geometry">
            <mxPoint x="530" y="491" as="sourcePoint" />
            <mxPoint x="450" y="640" as="targetPoint" />
            <Array as="points">
              <mxPoint x="540" y="490" />
            </Array>
          </mxGeometry>
        </mxCell>
      </root>
    </mxGraphModel>
  </diagram>
</mxfile>
